<svg xmlns="http://www.w3.org/2000/svg" version="1.1" xmlns:xlink="http://www.w3.org/1999/xlink" width="1500" height="1500" viewBox="0 0 1500 1500"><rect width="1500" height="1500" x="0" y="0" id="background" stroke="transparent" fill="#ffffff"></rect><svg xml:space="preserve" width="1000" height="1000" data-version="2" data-id="lg_6kjSf2zFyPg4mVrDXp" viewBox="0 0 547 355" x="250" y="250"><rect width="100%" height="100%" fill="transparent"></rect><path fill="#000000" d="m56.703 327.7 4.47 1.63q4.48 1.63 14.63 3.2 10.15 1.57 20.18 1.57t19.21-2.17V3.7h123.51v212.94q0 63.56-32.14 96.68-36.02 36.98-112.39 36.98-50.28 0-76.38-22.96l-4.11-4.11q-8.7-9.19-7.98-15.96 1.7-11.36 10.16-10.39 8.21 1.45 12.93 9.43 4.71 7.97 11.84 13.05 7.13 5.07 16.07 8.34"></path><rect width="233.29" height="346.6" x="-116.64" y="-173.3" fill="none" rx="0" ry="0" transform="translate(122.56 177.5)"></rect><path fill="#000000" d="M419.733 330.24q11.36 2.17 22.85 2.17 11.48 0 22.23-1.81 10.76-1.81 20.43-5.2 20.54-7.25 33.11-18.37 8.94-7.73 13.05-7.73 9.18 0 9.18 8.22 0 8.21-14.98 19.57-34.81 23.21-83.63 23.21-63.57 0-102.72-38.19-38.43-37.71-38.43-97.89 0-57.04 40.85-94.26 40.6-36.74 101.99-36.74 35.05 0 67.44 14.5 24.65 10.64 24.65 22 0 4.83-2.78 7.37t-6.16 2.54q-5.08 0-13.05-5.56-15.71-14.99-46.65-21.03-11.12-2.18-24.41-2.18-13.3 0-22.97 1.94Z"></path><rect width="239.76" height="267.08" x="-119.88" y="-133.54" fill="none" rx="0" ry="0" transform="translate(421.2 217.26)"></rect></svg></svg>